<svg data-theme="final_20260604-soft-editorial" xmlns="http://www.w3.org/2000/svg" width="8000" height="6000" viewBox="0 0 8000 6000" role="img" aria-labelledby="title desc">
<title id="title">다이아몬드 결정</title><desc id="desc">선택 지점과 판단 조건을 나타낼 때. Warm cream soft card visual in adaptive-html-final style.</desc>
<defs>
  <linearGradient id="bg" x1="0" y1="0" x2="1" y2="1"><stop offset="0" stop-color="#f5f5f0"/><stop offset=".55" stop-color="#fffdfb"/><stop offset="1" stop-color="#eee9df"/></linearGradient>
  <linearGradient id="orangeSoft" x1="0" y1="0" x2="1" y2="1"><stop stop-color="#f2d4d7"/><stop offset="1" stop-color="#d77a82"/></linearGradient>
  <linearGradient id="purpleSoft" x1="0" y1="0" x2="1" y2="1"><stop stop-color="#f7e6e8"/><stop offset="1" stop-color="#d77a82"/></linearGradient>
  <linearGradient id="mintSoft" x1="0" y1="0" x2="1" y2="1"><stop stop-color="#f3f8f4"/><stop offset="1" stop-color="#6f967f"/></linearGradient>
  <filter id="shadow" x="-20%" y="-20%" width="140%" height="150%"><feDropShadow dx="0" dy="32" stdDeviation="54" flood-color="#a0917e" flood-opacity=".10"/></filter>
  <filter id="soft" x="-20%" y="-20%" width="140%" height="140%"><feDropShadow dx="0" dy="18" stdDeviation="30" flood-color="#a0917e" flood-opacity=".07"/></filter>
  <style>.k{font:850 118px -apple-system,BlinkMacSystemFont,'Pretendard','Segoe UI',sans-serif;fill:#9b5960;letter-spacing:8px;opacity:.72}.t{font:850 260px -apple-system,BlinkMacSystemFont,'Pretendard','Apple SD Gothic Neo','Segoe UI',sans-serif;fill:#4b463e;letter-spacing:-6px;opacity:.86}.s{font:600 104px -apple-system,BlinkMacSystemFont,'Pretendard','Segoe UI',sans-serif;fill:#7a7065;opacity:.78}</style>
</defs>
<rect width="8000" height="6000" fill="#f5f5f0"/><rect x="470" y="430" width="7060" height="5140" rx="330" fill="url(#bg)" stroke="#d8d8d0" stroke-width="16" filter="url(#shadow)"/>
<rect x="470" y="980" width="7060" height="10" fill="#fff" opacity=".36"/>
<text x="880" y="840" class="k">SOFT SHAPE</text><rect x="6460" y="620" width="560" height="560" rx="155" fill="#fffdfb" stroke="#d8d8d0" stroke-width="10" filter="url(#soft)"/><text x="6740" y="980" text-anchor="middle" font-family="-apple-system,BlinkMacSystemFont,'Pretendard','Apple SD Gothic Neo','Segoe UI',sans-serif" font-size="230" font-weight="850" fill="#9b5960" opacity=".82">AI</text>
<g><path d="M4000 1300L5850 2950L4000 4600L2150 2950Z" fill="#fffdfb" stroke="#d8d8d0" stroke-width="32" filter="url(#soft)"/><path d="M4000 1800L5280 2950L4000 4100L2720 2950Z" fill="url(#purpleSoft)"/><circle cx="4000" cy="2950" r="310" fill="#d77a82"/><path d="M3670 2950h660" stroke="#fff" stroke-width="58" stroke-linecap="round"/></g>
<text x="900" y="5090" class="t">다이아몬드 결정</text><text x="900" y="5350" class="s">선택 지점과 판단 조건을 나타낼 때</text>
</svg>