<svg xmlns="http://www.w3.org/2000/svg" width="8000" height="6000" viewBox="0 0 8000 6000" role="img" aria-labelledby="title desc">
<title id="title">Maturity Capability Matrix</title>
<desc id="desc">역량별 현재/목표 성숙도 차이를 한 장으로 진단</desc>
<style>
  text { font-family: Pretendard, -apple-system, BlinkMacSystemFont, "Noto Sans KR", Arial, sans-serif; }
  .shadow { filter: drop-shadow(0 20px 32px rgba(26,26,26,.08)); }
</style>
<rect width="8000" height="6000" fill="#f5f5f0"/>
<circle cx="7230" cy="760" r="520" fill="#fce4e6" opacity="0.72"/>
<circle cx="650" cy="5350" r="760" fill="#f0f4f8" opacity="0.88"/>
<text x="560" y="620" font-size="118" fill="#e63946" font-weight="950" letter-spacing="22">SVG TEMPLATE DEMO</text>
<text x="560" y="980" font-size="285" fill="#1a1a1a" font-weight="950" text-anchor="start">
<tspan x="560" dy="0">Maturity Capability Matrix</tspan>
</text>
<text x="570" y="1280" font-size="116" fill="#4a4a4a" font-weight="580" text-anchor="start">
<tspan x="570" dy="0">역량별 현재/목표 성숙도 차이를 한 장으로 진단</tspan>
</text>
<text x="1875.0" y="1565" font-size="62" fill="#1a1a1a" font-weight="850" text-anchor="middle">
<tspan x="1875.0" dy="0">Nascent</tspan>
</text>
<text x="2905.0" y="1565" font-size="62" fill="#1a1a1a" font-weight="850" text-anchor="middle">
<tspan x="2905.0" dy="0">Emerging</tspan>
</text>
<text x="3935.0" y="1565" font-size="62" fill="#1a1a1a" font-weight="850" text-anchor="middle">
<tspan x="3935.0" dy="0">Defined</tspan>
</text>
<text x="4965.0" y="1565" font-size="62" fill="#1a1a1a" font-weight="850" text-anchor="middle">
<tspan x="4965.0" dy="0">Managed</tspan>
</text>
<text x="5995.0" y="1565" font-size="62" fill="#1a1a1a" font-weight="850" text-anchor="middle">
<tspan x="5995.0" dy="0">Pioneering</tspan>
</text>
<text x="1200" y="1954.0" font-size="76" fill="#1a1a1a" font-weight="900" text-anchor="end">
<tspan x="1200" dy="0">거버넌스</tspan>
</text>
<rect x="1360" y="1680" width="1008" height="478" rx="44" fill="#fff" stroke="#d8d8d0" stroke-width="8"/>
<rect x="2390" y="1680" width="1008" height="478" rx="44" fill="#f8f8f4" stroke="#d8d8d0" stroke-width="8"/>
<rect x="3420" y="1680" width="1008" height="478" rx="44" fill="#eef7f1" stroke="#d8d8d0" stroke-width="8"/>
<rect x="4450" y="1680" width="1008" height="478" rx="44" fill="#ffe9a3" stroke="#d8d8d0" stroke-width="8"/>
<rect x="5480" y="1680" width="1008" height="478" rx="44" fill="#ffd400" stroke="#d8d8d0" stroke-width="8"/>
<text x="1200" y="2454.0" font-size="76" fill="#1a1a1a" font-weight="900" text-anchor="end">
<tspan x="1200" dy="0">데이터</tspan>
</text>
<rect x="1360" y="2180" width="1008" height="478" rx="44" fill="#fff" stroke="#d8d8d0" stroke-width="8"/>
<rect x="2390" y="2180" width="1008" height="478" rx="44" fill="#f8f8f4" stroke="#d8d8d0" stroke-width="8"/>
<rect x="3420" y="2180" width="1008" height="478" rx="44" fill="#eef7f1" stroke="#d8d8d0" stroke-width="8"/>
<rect x="4450" y="2180" width="1008" height="478" rx="44" fill="#ffe9a3" stroke="#d8d8d0" stroke-width="8"/>
<rect x="5480" y="2180" width="1008" height="478" rx="44" fill="#ffd400" stroke="#d8d8d0" stroke-width="8"/>
<text x="1200" y="2954.0" font-size="76" fill="#1a1a1a" font-weight="900" text-anchor="end">
<tspan x="1200" dy="0">보안</tspan>
</text>
<rect x="1360" y="2680" width="1008" height="478" rx="44" fill="#fff" stroke="#d8d8d0" stroke-width="8"/>
<rect x="2390" y="2680" width="1008" height="478" rx="44" fill="#f8f8f4" stroke="#d8d8d0" stroke-width="8"/>
<rect x="3420" y="2680" width="1008" height="478" rx="44" fill="#eef7f1" stroke="#d8d8d0" stroke-width="8"/>
<rect x="4450" y="2680" width="1008" height="478" rx="44" fill="#ffe9a3" stroke="#d8d8d0" stroke-width="8"/>
<rect x="5480" y="2680" width="1008" height="478" rx="44" fill="#ffd400" stroke="#d8d8d0" stroke-width="8"/>
<text x="1200" y="3454.0" font-size="76" fill="#1a1a1a" font-weight="900" text-anchor="end">
<tspan x="1200" dy="0">운영</tspan>
</text>
<rect x="1360" y="3180" width="1008" height="478" rx="44" fill="#fff" stroke="#d8d8d0" stroke-width="8"/>
<rect x="2390" y="3180" width="1008" height="478" rx="44" fill="#f8f8f4" stroke="#d8d8d0" stroke-width="8"/>
<rect x="3420" y="3180" width="1008" height="478" rx="44" fill="#eef7f1" stroke="#d8d8d0" stroke-width="8"/>
<rect x="4450" y="3180" width="1008" height="478" rx="44" fill="#ffe9a3" stroke="#d8d8d0" stroke-width="8"/>
<rect x="5480" y="3180" width="1008" height="478" rx="44" fill="#ffd400" stroke="#d8d8d0" stroke-width="8"/>
<text x="1200" y="3954.0" font-size="76" fill="#1a1a1a" font-weight="900" text-anchor="end">
<tspan x="1200" dy="0">검증</tspan>
</text>
<rect x="1360" y="3680" width="1008" height="478" rx="44" fill="#fff" stroke="#d8d8d0" stroke-width="8"/>
<rect x="2390" y="3680" width="1008" height="478" rx="44" fill="#f8f8f4" stroke="#d8d8d0" stroke-width="8"/>
<rect x="3420" y="3680" width="1008" height="478" rx="44" fill="#eef7f1" stroke="#d8d8d0" stroke-width="8"/>
<rect x="4450" y="3680" width="1008" height="478" rx="44" fill="#ffe9a3" stroke="#d8d8d0" stroke-width="8"/>
<rect x="5480" y="3680" width="1008" height="478" rx="44" fill="#ffd400" stroke="#d8d8d0" stroke-width="8"/>
<text x="1200" y="4454.0" font-size="76" fill="#1a1a1a" font-weight="900" text-anchor="end">
<tspan x="1200" dy="0">교육</tspan>
</text>
<rect x="1360" y="4180" width="1008" height="478" rx="44" fill="#fff" stroke="#d8d8d0" stroke-width="8"/>
<rect x="2390" y="4180" width="1008" height="478" rx="44" fill="#f8f8f4" stroke="#d8d8d0" stroke-width="8"/>
<rect x="3420" y="4180" width="1008" height="478" rx="44" fill="#eef7f1" stroke="#d8d8d0" stroke-width="8"/>
<rect x="4450" y="4180" width="1008" height="478" rx="44" fill="#ffe9a3" stroke="#d8d8d0" stroke-width="8"/>
<rect x="5480" y="4180" width="1008" height="478" rx="44" fill="#ffd400" stroke="#d8d8d0" stroke-width="8"/>
<circle cx="2905.0" cy="1930.0" r="70" fill="#e63946"/>
<text x="2905.0" y="1952.0" font-size="44" fill="#fff" font-weight="900" text-anchor="middle">
<tspan x="2905.0" dy="0">현재</tspan>
</text>
<circle cx="3935.0" cy="2430.0" r="70" fill="#e63946"/>
<text x="3935.0" y="2452.0" font-size="44" fill="#fff" font-weight="900" text-anchor="middle">
<tspan x="3935.0" dy="0">현재</tspan>
</text>
<circle cx="3935.0" cy="2930.0" r="70" fill="#e63946"/>
<text x="3935.0" y="2952.0" font-size="44" fill="#fff" font-weight="900" text-anchor="middle">
<tspan x="3935.0" dy="0">현재</tspan>
</text>
<circle cx="4965.0" cy="3430.0" r="70" fill="#e63946"/>
<text x="4965.0" y="3452.0" font-size="44" fill="#fff" font-weight="900" text-anchor="middle">
<tspan x="4965.0" dy="0">현재</tspan>
</text>
<circle cx="2905.0" cy="3930.0" r="70" fill="#e63946"/>
<text x="2905.0" y="3952.0" font-size="44" fill="#fff" font-weight="900" text-anchor="middle">
<tspan x="2905.0" dy="0">현재</tspan>
</text>
<circle cx="3935.0" cy="4430.0" r="70" fill="#e63946"/>
<text x="3935.0" y="4452.0" font-size="44" fill="#fff" font-weight="900" text-anchor="middle">
<tspan x="3935.0" dy="0">현재</tspan>
</text>
<rect x="4883.0" y="1868.0" width="164" height="124" rx="62" fill="#1a1a1a"/>
<text x="4965.0" y="1948.0" font-size="44" fill="#fff" font-weight="900" text-anchor="middle">
<tspan x="4965.0" dy="0">목표</tspan>
</text>
<rect x="5913.0" y="2368.0" width="164" height="124" rx="62" fill="#1a1a1a"/>
<text x="5995.0" y="2448.0" font-size="44" fill="#fff" font-weight="900" text-anchor="middle">
<tspan x="5995.0" dy="0">목표</tspan>
</text>
<rect x="5913.0" y="2868.0" width="164" height="124" rx="62" fill="#1a1a1a"/>
<text x="5995.0" y="2948.0" font-size="44" fill="#fff" font-weight="900" text-anchor="middle">
<tspan x="5995.0" dy="0">목표</tspan>
</text>
<rect x="5913.0" y="3368.0" width="164" height="124" rx="62" fill="#1a1a1a"/>
<text x="5995.0" y="3448.0" font-size="44" fill="#fff" font-weight="900" text-anchor="middle">
<tspan x="5995.0" dy="0">목표</tspan>
</text>
<rect x="4883.0" y="3868.0" width="164" height="124" rx="62" fill="#1a1a1a"/>
<text x="4965.0" y="3948.0" font-size="44" fill="#fff" font-weight="900" text-anchor="middle">
<tspan x="4965.0" dy="0">목표</tspan>
</text>
<rect x="4883.0" y="4368.0" width="164" height="124" rx="62" fill="#1a1a1a"/>
<text x="4965.0" y="4448.0" font-size="44" fill="#fff" font-weight="900" text-anchor="middle">
<tspan x="4965.0" dy="0">목표</tspan>
</text>
<rect x="870" y="4920" width="6060" height="420" rx="96" fill="#ffffff" stroke="#d8d8d0" stroke-width="12" class="shadow"/>
<rect x="870" y="4920" width="28" height="420" rx="14" fill="#3a6280"/>
<text x="980" y="5085" font-size="112" fill="#1a1a1a" font-weight="900" text-anchor="start">
<tspan x="980" dy="0">사용법</tspan>
</text>
<text x="980" y="5245" font-size="74" fill="#4a4a4a" font-weight="560" text-anchor="start">
<tspan x="980" dy="0">행은 역량, 열은 성숙도입니다. 현재와 목표의 거리로 로드맵 우선순위를 정합니다.</tspan>
</text>
<text x="7440" y="5600" font-size="84" text-anchor="end" fill="#7a7a7a" font-weight="750">8000×6000 SVG · adaptive template demo</text>
</svg>