<svg xmlns="http://www.w3.org/2000/svg" width="8000" height="6000" viewBox="0 0 8000 6000" role="img" aria-labelledby="title desc">
<title id="title">섹션 이미지는 찾기보다 설계가 먼저입니다</title>
<desc id="desc">사진·인포그래픽·AI 생성 이미지를 목적별로 나누는 3단계 운영안</desc>
<style>
  text { font-family: Pretendard, -apple-system, BlinkMacSystemFont, "Noto Sans KR", Arial, sans-serif; }
  .small { font-size: 92px; fill: #7a7a7a; font-weight: 650; }
  .hair { stroke:#d8d8d0; stroke-width:10; }
</style>
<rect width="8000" height="6000" fill="#f5f5f0"/>
<circle cx="7200" cy="740" r="520" fill="#fce4e6" opacity="0.8"/>
<circle cx="680" cy="5350" r="720" fill="#f0f4f8" opacity="0.95"/>
<text x="560" y="620" font-size="122" fill="#e63946" font-weight="900" letter-spacing="22">ADAPTIVE HTML IMAGE SYSTEM</text>
<text x="560" y="980" font-size="300" fill="#1a1a1a" font-weight="900" text-anchor="start">
<tspan x="560" dy="0">섹션 이미지는 찾기보다 설계가 먼저입니다</tspan>
</text>
<text x="570" y="1280" font-size="118" fill="#4a4a4a" font-weight="560" text-anchor="start">
<tspan x="570" dy="0">사진·인포그래픽·AI 생성 이미지를 목적별로 나누는 3단계 운영안</tspan>
</text>
<line x1="920" y1="2780" x2="7080" y2="2780" class="hair"/>
<circle cx="1700" cy="2780" r="170" fill="#e63946"/>
<text x="1700" y="2835" font-size="150" text-anchor="middle" fill="#fff" font-weight="900">01</text>
<circle cx="4000" cy="2780" r="170" fill="#e63946"/>
<text x="4000" y="2835" font-size="150" text-anchor="middle" fill="#fff" font-weight="900">02</text>
<circle cx="6300" cy="2780" r="170" fill="#e63946"/>
<text x="6300" y="2835" font-size="150" text-anchor="middle" fill="#fff" font-weight="900">03</text>
<rect x="520" y="1660" width="1960" height="1360" rx="120" fill="#ffffff" stroke="#d8d8d0" stroke-width="14"/>
<rect x="520" y="1660" width="26" height="1360" rx="13" fill="#e63946"/>
<text x="640" y="1830" font-size="88" fill="#e63946" font-weight="900" letter-spacing="10">SOURCE</text>
<text x="640" y="2010" font-size="150" fill="#1a1a1a" font-weight="900" text-anchor="start">
<tspan x="640" dy="0">찾기</tspan>
</text>
<text x="640" y="2260" font-size="104" fill="#4a4a4a" font-weight="520" text-anchor="start">
<tspan x="640" dy="0">실제 장소·인물·제품은</tspan>
<tspan x="640" dy="138.32">공개 라이선스 이미지를 우선</tspan>
<tspan x="640" dy="138.32">출처·라이선스·대체텍스트 기록</tspan>
</text>
<rect x="3020" y="1660" width="1960" height="1360" rx="120" fill="#ffffff" stroke="#d8d8d0" stroke-width="14"/>
<rect x="3020" y="1660" width="26" height="1360" rx="13" fill="#3a6280"/>
<text x="3140" y="1830" font-size="88" fill="#3a6280" font-weight="900" letter-spacing="10">CREATE</text>
<text x="3140" y="2010" font-size="150" fill="#1a1a1a" font-weight="900" text-anchor="start">
<tspan x="3140" dy="0">만들기</tspan>
</text>
<text x="3140" y="2260" font-size="104" fill="#4a4a4a" font-weight="520" text-anchor="start">
<tspan x="3140" dy="0">추상 개념·프로세스·비교는</tspan>
<tspan x="3140" dy="138.32">SVG 인포그래픽으로 직접 생성</tspan>
<tspan x="3140" dy="138.32">8000×6000 원본 캔버스 유지</tspan>
</text>
<rect x="5520" y="1660" width="1960" height="1360" rx="120" fill="#ffffff" stroke="#d8d8d0" stroke-width="14"/>
<rect x="5520" y="1660" width="26" height="1360" rx="13" fill="#2a7d5a"/>
<text x="5640" y="1830" font-size="88" fill="#2a7d5a" font-weight="900" letter-spacing="10">VERIFY</text>
<text x="5640" y="2010" font-size="150" fill="#1a1a1a" font-weight="900" text-anchor="start">
<tspan x="5640" dy="0">검증하기</tspan>
</text>
<text x="5640" y="2260" font-size="104" fill="#4a4a4a" font-weight="520" text-anchor="start">
<tspan x="5640" dy="0">모바일 390px, 색 대비,</tspan>
<tspan x="5640" dy="138.32">텍스트 가독성, 사실성,</tspan>
<tspan x="5640" dy="138.32">라이선스 증빙을 통과해야 삽입</tspan>
</text>
<rect x="720" y="3540" width="6560" height="1120" rx="120" fill="#ffffff" stroke="#d8d8d0" stroke-width="14"/>
<rect x="720" y="3540" width="26" height="1120" rx="13" fill="#1a1a1a"/>
<text x="840" y="3750" font-size="150" fill="#1a1a1a" font-weight="900" text-anchor="start">
<tspan x="840" dy="0">추천 결론</tspan>
</text>
<text x="840" y="4000" font-size="104" fill="#4a4a4a" font-weight="520" text-anchor="start">
<tspan x="840" dy="0">가장 안전한 기본값은 “사진은 필요한 경우에만 찾고, 핵심 설명은 벡터 인포그래픽으로 만든다”입니다.</tspan>
<tspan x="840" dy="138.32">현재 스킬의 editorial 레이아웃에는 장식 사진보다 구조도·흐름도·비교표형 이미지가 더 잘 맞습니다.</tspan>
</text>
<text x="7440" y="5600" font-size="84" text-anchor="end" fill="#7a7a7a" font-weight="700">8000×6000 SVG · scalable infographic</text>
</svg>